<svg xmlns="http://www.w3.org/2000/svg" width="192" height="192" viewBox="0 0 192 192"><rect width="192" height="192" rx="42" fill="#147a73"/><g transform="translate(48 48)"><svg xmlns="http://www.w3.org/2000/svg" width="96" height="96" viewBox="0 0 24 24" fill="none" stroke="#ede9e0" stroke-width="1.6" stroke-linecap="round" stroke-linejoin="round" class="lucide lucide-file-text" aria-hidden="true"><path d="M6 22a2 2 0 0 1-2-2V4a2 2 0 0 1 2-2h8a2.4 2.4 0 0 1 1.704.706l3.588 3.588A2.4 2.4 0 0 1 20 8v12a2 2 0 0 1-2 2z"></path><path d="M14 2v5a1 1 0 0 0 1 1h5"></path><path d="M10 9H8"></path><path d="M16 13H8"></path><path d="M16 17H8"></path></svg></g></svg>
