<svg xmlns="http://www.w3.org/2000/svg" width="192" height="192" viewBox="0 0 192 192"><rect width="192" height="192" rx="42" fill="#147a73"/><g transform="translate(48 48)"><svg xmlns="http://www.w3.org/2000/svg" width="96" height="96" viewBox="0 0 24 24" fill="none" stroke="#ede9e0" stroke-width="1.6" stroke-linecap="round" stroke-linejoin="round" class="lucide lucide-book-image" aria-hidden="true"><path d="m20 13.7-2.1-2.1a2 2 0 0 0-2.8 0L9.7 17"></path><path d="M4 19.5v-15A2.5 2.5 0 0 1 6.5 2H19a1 1 0 0 1 1 1v18a1 1 0 0 1-1 1H6.5a1 1 0 0 1 0-5H20"></path><circle cx="10" cy="8" r="2"></circle></svg></g></svg>
